<svg xmlns="http://www.w3.org/2000/svg" viewBox="0 0 32 32" width="32" height="32">
  <rect width="32" height="32" fill="#111827"/>
  <!-- Row 1 -->
  <circle cx="6" cy="6" r="2" fill="#4a5568"/>
  <circle cx="11" cy="6" r="2" fill="#4a5568"/>
  <circle cx="16" cy="6" r="2" fill="#4a5568"/>
  <circle cx="21" cy="6" r="2" fill="#4a5568"/>
  <circle cx="26" cy="6" r="2" fill="#4a5568"/>
  <!-- Row 2 -->
  <circle cx="6" cy="11" r="2" fill="#4a5568"/>
  <circle cx="11" cy="11" r="2" fill="#4a5568"/>
  <circle cx="16" cy="11" r="2" fill="#4a5568"/>
  <circle cx="21" cy="11" r="2" fill="#4a5568"/>
  <circle cx="26" cy="11" r="2" fill="#4a5568"/>
  <!-- Row 3 -->
  <circle cx="6" cy="16" r="2" fill="#4a5568"/>
  <circle cx="11" cy="16" r="2" fill="#4a5568"/>
  <!-- Center dot: row 3, col 3 — gold, slightly larger -->
  <circle cx="16" cy="16" r="3" fill="#C9A84C"/>
  <circle cx="21" cy="16" r="2" fill="#4a5568"/>
  <circle cx="26" cy="16" r="2" fill="#4a5568"/>
  <!-- Row 4 -->
  <circle cx="6" cy="21" r="2" fill="#4a5568"/>
  <circle cx="11" cy="21" r="2" fill="#4a5568"/>
  <circle cx="16" cy="21" r="2" fill="#4a5568"/>
  <circle cx="21" cy="21" r="2" fill="#4a5568"/>
  <circle cx="26" cy="21" r="2" fill="#4a5568"/>
  <!-- Row 5 -->
  <circle cx="6" cy="26" r="2" fill="#4a5568"/>
  <circle cx="11" cy="26" r="2" fill="#4a5568"/>
  <circle cx="16" cy="26" r="2" fill="#4a5568"/>
  <circle cx="21" cy="26" r="2" fill="#4a5568"/>
  <circle cx="26" cy="26" r="2" fill="#4a5568"/>
</svg>
